<svg width="1024" height="1024" viewBox="0 0 1024 1024" fill="none" xmlns="http://www.w3.org/2000/svg">
<path fill-rule="evenodd" clip-rule="evenodd" d="M376.271 825.995L359.967 803.609C359.967 803.609 382.09 766.405 388.854 735.466C395.622 704.53 393.687 689.878 393.687 672.642C393.687 626.176 404.921 603.774 424.559 564.027C432.472 548.005 438 534.065 435.469 516.629C431.061 531.947 428.751 540.983 424.926 550.162C414.103 576.152 389.229 603.624 390.069 633.069C383.763 620.457 372.05 576.847 376.254 553.308C380.458 529.766 387.834 514.227 398.436 492.291C409.038 470.359 411.593 440.747 406.844 426.125C403.855 486.938 369.769 507.517 368.096 555.169C362.672 537.816 348.374 519.967 347.704 490.63C346.676 445.418 381.994 421.005 365.698 373.336C366.219 383.256 367.388 395.114 363.376 411.227C356.283 439.719 342.813 450.221 340.89 483.904C332.482 460.361 319.029 430.508 319.029 412.43C319.029 394.353 331.225 378.377 325.335 337.593C324.915 359.455 311.461 393.932 312.723 411.589C271.102 302.7 268.155 301.018 268.155 301.018L325.214 475.566C325.214 475.566 288.243 441.164 299.053 460.561C311.453 470.417 337.847 494.002 358.643 564.609C335.912 545.749 341.402 547.477 317.622 532.542C285.267 516.229 258.54 502.697 240.454 472.415C247.605 494.285 262.32 513.632 303.961 535.501C332.141 551.065 375.609 575.19 380.238 658.889C363.413 635.758 344.907 620.615 320.09 607.999C295.278 595.382 280.131 590.333 260.784 565.941C272.563 587.811 287.702 601.693 321.351 618.517C344.903 631.138 387.305 656.479 378.598 714.52C340.386 693.72 273.308 663.122 237.998 583.798C221.553 535.909 201.652 480.59 231.08 366.56C237.703 318.742 248.001 273.866 223.725 244.438C254.623 259.889 401.021 327.566 434.866 434.241C438.545 423.207 439.307 420.239 442.233 412.555C428.701 384.754 409.317 352.2 388.829 336.107C394.315 316.357 434.687 205.407 604.232 111.997C591.436 131.19 583.12 188.128 628.544 283.457C649.656 335.92 699.793 478.43 626.855 536.009C655.646 529.612 765.693 502.735 807.917 440.677C799.6 518.094 796.295 630.888 688.167 715.985C633.144 753.735 578.757 787.005 448.235 742.858C462.95 728.144 485.335 703.032 545.916 718.179C582.096 726.595 602.708 732.906 628.37 722.387C616.12 723.17 602.733 722.82 586.325 719.34C543.597 710.287 540.754 704.709 494.168 707.24C512.258 689.15 550.54 657.174 625.843 671.901C633.835 666.431 633.835 666.431 633.835 666.431C633.835 666.431 602.704 659.276 582.087 660.121C619.529 640.349 643.929 626.043 668.329 625.623C692.73 625.202 730.175 623.096 749.102 601.643C728.069 610.48 715.444 616.786 663.701 618.051C687.277 595.449 717.808 587.853 773.04 509.174C748.631 537.37 709.496 585.759 654.793 608.906C666.577 587.869 667.418 585.659 671.235 574.837C675.052 564.018 675.688 553.196 690.328 538.561C674.098 550.016 672.188 555.148 661.37 586.608C650.868 609.839 643.234 616.524 626.688 626.384C578.957 647.068 580.868 647.384 580.868 647.384C600.664 622.068 600.494 610.101 613.385 584.181C618.063 574.774 623.957 565.184 631.267 557.425C590.063 580.889 606.242 626.451 556.28 655.38C528.608 671.705 507.026 682.498 507.026 682.498C507.026 682.498 522.777 661.311 528.633 643.746C534.49 626.18 539.243 605.684 551.689 589.95C533.757 610.076 526.806 622.522 516.924 647.771C507.043 673.753 496.187 689.358 463.249 711.319C439.827 732.181 413.109 753.406 397.374 780.853C385.666 803.542 379.376 817.083 376.263 825.982L376.271 825.995ZM453.434 434.966C453.434 434.966 453.439 407.831 478.634 420.426C610.442 498.447 610.442 498.447 610.442 498.447C610.442 498.447 632.249 506.685 610.442 528.492C477.177 607.478 477.177 607.479 477.177 607.479C477.177 607.479 453.917 613.78 451.977 593.913C452.947 449.505 453.43 434.966 453.43 434.966H453.434ZM607.978 476.703L600.232 471.679C600.232 471.679 629.756 446.129 638.759 419.119C637.922 432.522 632.686 453.672 607.978 476.703ZM542.373 438.262L535.63 432.002C535.63 432.002 612.798 376.03 622.03 330.813C620.436 358.839 614.704 384.95 542.369 438.267L542.373 438.262ZM572.235 278.47C572.235 278.47 577.33 287.386 586.246 294.071C595.162 300.76 603.441 306.492 594.525 326.867C595.162 315.72 593.572 313.813 588.156 306.492C581.467 299.166 576.376 295.986 576.693 304.581C577.33 340.561 578.062 351.983 559.498 354.572C550.582 354.572 538.165 337.698 570.004 332.603C569.687 293.118 572.235 278.47 572.235 278.47ZM466.846 250.698C466.846 250.698 458.787 281.455 475.266 314.038C490.28 344.428 501.527 371.555 501.527 393.891C500.428 412.93 500.428 412.93 500.428 412.93L512.878 420.251C512.878 420.251 512.882 392.796 541.071 359.475C540.338 347.026 540.338 347.026 540.338 347.026C540.338 347.026 521.665 363.134 515.809 380.342C517.64 352.516 521.669 317.368 531.922 296.864C545.466 279.656 575.623 254.415 578.92 232.08C568.668 245.99 561.712 256.609 547.797 266.861C537.911 274.187 531.684 284.439 530.223 288.464C534.985 264.663 551.781 207.321 566.795 171.97C546.457 197.631 534.835 231.53 521.278 283.827C518.86 268.33 516.046 258.199 513.12 248.675C510.189 238.789 506.531 227.434 512.021 203.271C501.402 219.384 502.131 236.225 507.625 254.536C513.12 272.842 517.515 292.252 514.951 308.361C506.164 356.325 505.798 367.676 505.798 367.676C505.798 367.676 495.546 332.157 481.997 309.459C468.448 286.757 468.448 258.561 466.858 250.694L466.846 250.698ZM422.99 306.712C422.99 306.712 421.97 357.224 459.312 399.689C450.891 403.718 450.891 403.718 450.891 403.718C450.891 403.718 415.539 366.119 422.99 306.712ZM280.476 447.694C280.476 447.694 253.104 429.546 246.415 401.853C256.6 414.586 266.79 428.597 278.249 436.872C276.339 415.544 275.702 413.954 283.34 420.955C288.435 428.593 295.12 429.23 297.667 431.14C300.215 433.051 310.08 442.908 305.942 449.605C301.484 443.241 283.656 427.319 285.251 439.099C290.662 476.024 293.525 480.482 285.251 488.441C277.292 495.126 263.918 491.304 267.106 480.803C270.291 470.297 277.975 471.649 283.977 470.933C282.066 455.337 280.476 447.694 280.476 447.694ZM655.351 674.773L671.264 635.625C671.264 635.625 674.132 637.852 676.038 643.263C677.949 648.674 688.134 659.176 679.539 671.272C689.404 672.23 704.364 665.861 713.596 660.45C704.047 673.499 683.993 677.32 670.311 677.637C676.675 667.135 682.086 661.407 670.311 652.175C658.214 682.411 658.535 682.095 658.535 682.095C658.535 682.095 650.576 695.144 635.937 687.506C625.115 680.505 638.776 664.358 655.351 674.777V674.773ZM402.224 749.018C402.224 749.018 407.348 712.418 410.644 699.24C420.892 685.699 439.195 650.93 445.78 618.721C456.394 627.504 472.861 630.068 489.698 617.989C466.638 646.539 450.899 671.056 435.532 714.616C408.08 742.433 402.224 749.023 402.224 749.023V749.018Z" fill="white" style="fill:white;fill-opacity:1;"/>
<path fill-rule="evenodd" clip-rule="evenodd" d="M726.777 447.265L726.561 399.821C726.544 396.2 727.272 392.945 732.147 390.855C741.362 386.905 756.78 381.994 766.666 379.142C775.424 376.62 776.531 378.197 776.631 384.649C776.389 439.556 780.002 447.744 760.493 450.395C748.451 450.637 742.915 428.238 771.332 428.963C771.815 396.691 772.776 391.392 768.443 393.802C740.509 403.434 732.559 403.193 732.559 409.453C732.076 450.878 736.172 461.954 720.275 468.219C703.272 474.762 689.207 446.545 726.777 447.265Z" fill="white" style="fill:white;fill-opacity:1;"/>
<path fill-rule="evenodd" clip-rule="evenodd" d="M368.187 203.758L368.824 264.301C368.824 264.301 340.461 263.664 344.923 285.334C346.197 294.575 374.24 293.938 375.517 271.952C373.923 226.065 372.013 218.739 380.296 224.154C388.579 229.574 397.295 236.854 393.437 253.962C400.904 244.804 404.709 230.427 386.448 217.095C380.184 211.792 376.088 208.899 375.363 205.286C374.639 201.673 370.302 195.167 368.183 203.758H368.187Z" fill="white" style="fill:white;fill-opacity:1;"/>
</svg>
